<svg xmlns="http://www.w3.org/2000/svg" xmlns:xlink="http://www.w3.org/1999/xlink" width="420" height="293" viewBox="0 0 420 293">
  <metadata><?xpacket begin="﻿" id="W5M0MpCehiHzreSzNTczkc9d"?>
<x:xmpmeta xmlns:x="adobe:ns:meta/" x:xmptk="Adobe XMP Core 5.6-c138 79.159824, 2016/09/14-01:09:01        ">
   <rdf:RDF xmlns:rdf="http://www.w3.org/1999/02/22-rdf-syntax-ns#">
      <rdf:Description rdf:about=""/>
   </rdf:RDF>
</x:xmpmeta>
                                                                                                    
                                                                                                    
                                                                                                    
                                                                                                    
                                                                                                    
                                                                                                    
                                                                                                    
                                                                                                    
                                                                                                    
                                                                                                    
                                                                                                    
                                                                                                    
                                                                                                    
                                                                                                    
                                                                                                    
                                                                                                    
                                                                                                    
                                                                                                    
                                                                                                    
                                                                                                    
                           
<?xpacket end="w"?></metadata>
<defs>
    <style>
      .cls-1 {
        fill: #fff;
        fill-rule: evenodd;
        filter: url(#filter);
      }
    </style>
    <filter id="filter" x="474" y="1671" width="420" height="293" filterUnits="userSpaceOnUse">
      <feOffset result="offset" dy="3" in="SourceAlpha"/>
      <feGaussianBlur result="blur"/>
      <feFlood result="flood" flood-opacity="0.15"/>
      <feComposite result="composite" operator="in" in2="blur"/>
      <feBlend result="blend" in="SourceGraphic"/>
    </filter>
  </defs>
  <path class="cls-1" d="M663.814,1769.81v-48.9h0.1V1676a4.974,4.974,0,0,0,.089-0.93,3.851,3.851,0,0,0-4.074-4.07H488.067a3.851,3.851,0,0,0-4.074,4.07,4.974,4.974,0,0,0,.089.93v44.91h0.1v48.9c-7.1,2.2-10.186,15.57-10.186,20.04v4.08a4.087,4.087,0,0,0,4.074,4.07H669.925a4.087,4.087,0,0,0,4.075-4.07v-4.08C674,1785.38,670.912,1772.01,663.814,1769.81Zm-171.479-.32v-90.35H655.664v90.35m-173.516,20.36c0-3.41,2.461-9.99,4.12-11.87a4.372,4.372,0,0,0,1.992.46,4.236,4.236,0,0,0,2.557-.8H657.182a4.236,4.236,0,0,0,2.557.8,4.372,4.372,0,0,0,1.992-.46c1.659,1.88,4.12,8.46,4.12,11.87h-183.7Zm100.034-100.7a16.53,16.53,0,1,0,16.532,16.53A16.553,16.553,0,0,0,582.182,1689.15Zm0,26.48a9.95,9.95,0,1,1,9.955-9.95A9.962,9.962,0,0,1,582.182,1715.63Zm31.8-4a3.058,3.058,0,0,0,2.983,3.15l23.932,0.67h0.088a3.066,3.066,0,0,0,.084-6.13l-23.933-.67A3.051,3.051,0,0,0,613.981,1711.63Zm21.291,12.53h0.112a3.071,3.071,0,0,0,.108-6.14l-18.582-.66a3.067,3.067,0,1,0-.221,6.13Zm-18.641,2.29a3.066,3.066,0,1,0-.162,6.13l25.335,0.67h0.083a3.071,3.071,0,0,0,.079-6.14Zm-72.762,7.68a3.076,3.076,0,0,0-3.3-2.82l-18.971,1.51a3.044,3.044,0,0,0-2.093,1.06,3.088,3.088,0,0,0-.724,2.24l1.461,18.37a3.061,3.061,0,0,0,3.056,2.82,2.049,2.049,0,0,0,.247-0.01l18.971-1.5a3.091,3.091,0,0,0,2.092-1.07,3.059,3.059,0,0,0,.724-2.23Zm-17.754,16.81-0.974-12.25,12.851-1.02,0.974,12.25Zm-1.746-41.03c10.74,3.26,25.646,5.92,31.065-8.66a2.979,2.979,0,0,0-5.584-2.08c-2.025,5.45-6.43,10.31-23.746,5.04-6.865-2.09-13.452.49-19.052,7.46a43.26,43.26,0,0,0-6.046,10.4,2.983,2.983,0,0,0,1.719,3.85,3.058,3.058,0,0,0,1.063.2,2.979,2.979,0,0,0,2.783-1.92C506.639,1724.02,513.451,1706.59,524.369,1709.91Zm30.036,29.34c0.082,0,.165-0.01.249-0.01l23.865-1.92a3.07,3.07,0,0,0-.492-6.12l-23.865,1.92A3.07,3.07,0,0,0,554.405,1739.25Zm31.34,11.34L555.761,1753a3.07,3.07,0,0,0,.243,6.13c0.082,0,.165-0.01.249-0.01l29.984-2.41A3.07,3.07,0,1,0,585.745,1750.59Zm-30.6-2.17a2.09,2.09,0,0,0,.249-0.01l29.985-2.41a3.065,3.065,0,1,0-.493-6.11L554.9,1742.3A3.065,3.065,0,0,0,555.143,1748.42Zm72.985,5.73H607.344a2.619,2.619,0,0,0-1.669.72l-5.251,5.5a2.3,2.3,0,0,0,0,3.34l5.251,5.5a2.435,2.435,0,0,0,.52.42h23.079a2.388,2.388,0,0,0,1.243-2.11v-10.98A2.256,2.256,0,0,0,628.128,1754.15Zm-2.377,11.01H608.3l-2.864-3.1,2.864-3.11h17.448v6.21Zm258.063,4.65v-48.9h0.1V1676a4.974,4.974,0,0,0,.089-0.93,3.851,3.851,0,0,0-4.074-4.07H708.067a3.851,3.851,0,0,0-4.074,4.07,4.974,4.974,0,0,0,.089.93v44.91h0.1v48.9c-7.1,2.2-10.186,15.57-10.186,20.04v4.08a4.087,4.087,0,0,0,4.074,4.07H889.925a4.087,4.087,0,0,0,4.075-4.07v-4.08C894,1785.38,890.912,1772.01,883.814,1769.81Zm-171.479-.32v-90.35H875.664v90.35m-173.516,20.36c0-3.41,2.461-9.99,4.12-11.87a4.372,4.372,0,0,0,1.992.46,4.236,4.236,0,0,0,2.557-.8H877.182a4.236,4.236,0,0,0,2.557.8,4.372,4.372,0,0,0,1.992-.46c1.659,1.88,4.12,8.46,4.12,11.87h-183.7Zm100.034-100.7a16.53,16.53,0,1,0,16.532,16.53A16.553,16.553,0,0,0,802.182,1689.15Zm0,26.48a9.95,9.95,0,1,1,9.955-9.95A9.962,9.962,0,0,1,802.182,1715.63Zm31.8-4a3.058,3.058,0,0,0,2.983,3.15l23.932,0.67h0.088a3.066,3.066,0,0,0,.084-6.13l-23.933-.67A3.051,3.051,0,0,0,833.981,1711.63Zm21.291,12.53h0.112a3.071,3.071,0,0,0,.108-6.14l-18.582-.66a3.067,3.067,0,1,0-.221,6.13Zm-18.641,2.29a3.066,3.066,0,1,0-.162,6.13l25.335,0.67h0.083a3.071,3.071,0,0,0,.079-6.14Zm-72.762,7.68a3.076,3.076,0,0,0-3.3-2.82l-18.971,1.51a3.044,3.044,0,0,0-2.093,1.06,3.088,3.088,0,0,0-.724,2.24l1.461,18.37a3.061,3.061,0,0,0,3.056,2.82,2.049,2.049,0,0,0,.247-0.01l18.971-1.5a3.091,3.091,0,0,0,2.092-1.07,3.059,3.059,0,0,0,.724-2.23Zm-17.754,16.81-0.974-12.25,12.851-1.02,0.974,12.25Zm-1.746-41.03c10.74,3.26,25.646,5.92,31.065-8.66a2.979,2.979,0,0,0-5.584-2.08c-2.025,5.45-6.43,10.31-23.746,5.04-6.865-2.09-13.452.49-19.052,7.46a43.26,43.26,0,0,0-6.046,10.4,2.983,2.983,0,0,0,1.719,3.85,3.058,3.058,0,0,0,1.063.2,2.979,2.979,0,0,0,2.783-1.92C726.639,1724.02,733.451,1706.59,744.369,1709.91Zm30.036,29.34c0.082,0,.165-0.01.249-0.01l23.865-1.92a3.07,3.07,0,0,0-.492-6.12l-23.865,1.92A3.07,3.07,0,0,0,774.405,1739.25Zm31.34,11.34L775.761,1753a3.07,3.07,0,0,0,.243,6.13c0.082,0,.165-0.01.249-0.01l29.984-2.41A3.07,3.07,0,1,0,805.745,1750.59Zm-30.6-2.17a2.09,2.09,0,0,0,.249-0.01l29.985-2.41a3.065,3.065,0,1,0-.493-6.11L774.9,1742.3A3.065,3.065,0,0,0,775.143,1748.42Zm72.985,5.73H827.344a2.619,2.619,0,0,0-1.669.72l-5.251,5.5a2.3,2.3,0,0,0,0,3.34l5.251,5.5a2.435,2.435,0,0,0,.52.42h23.079a2.388,2.388,0,0,0,1.243-2.11v-10.98A2.256,2.256,0,0,0,848.128,1754.15Zm-2.377,11.01H828.3l-2.864-3.1,2.864-3.11h17.448v6.21ZM663.814,1932.81v-48.9h0.1V1839a4.974,4.974,0,0,0,.089-0.93,3.851,3.851,0,0,0-4.074-4.07H488.067a3.851,3.851,0,0,0-4.074,4.07,4.974,4.974,0,0,0,.089.93v44.91h0.1v48.9c-7.1,2.2-10.186,15.57-10.186,20.04v4.08a4.087,4.087,0,0,0,4.074,4.07H669.925a4.087,4.087,0,0,0,4.075-4.07v-4.08C674,1948.38,670.912,1935.01,663.814,1932.81Zm-171.479-.32v-90.35H655.664v90.35m-173.516,20.36c0-3.41,2.461-9.99,4.12-11.87a4.372,4.372,0,0,0,1.992.46,4.236,4.236,0,0,0,2.557-.8H657.182a4.236,4.236,0,0,0,2.557.8,4.372,4.372,0,0,0,1.992-.46c1.659,1.88,4.12,8.46,4.12,11.87h-183.7Zm100.034-100.7a16.53,16.53,0,1,0,16.532,16.53A16.553,16.553,0,0,0,582.182,1852.15Zm0,26.48a9.95,9.95,0,1,1,9.955-9.95A9.962,9.962,0,0,1,582.182,1878.63Zm31.8-4a3.058,3.058,0,0,0,2.983,3.15l23.932,0.67h0.088a3.066,3.066,0,0,0,.084-6.13l-23.933-.67A3.051,3.051,0,0,0,613.981,1874.63Zm21.291,12.53h0.112a3.071,3.071,0,0,0,.108-6.14l-18.582-.66a3.067,3.067,0,1,0-.221,6.13Zm-18.641,2.29a3.066,3.066,0,1,0-.162,6.13l25.335,0.67h0.083a3.071,3.071,0,0,0,.079-6.14Zm-72.762,7.68a3.076,3.076,0,0,0-3.3-2.82l-18.971,1.51a3.044,3.044,0,0,0-2.093,1.06,3.088,3.088,0,0,0-.724,2.24l1.461,18.37a3.061,3.061,0,0,0,3.056,2.82,2.049,2.049,0,0,0,.247-0.01l18.971-1.5a3.091,3.091,0,0,0,2.092-1.07,3.059,3.059,0,0,0,.724-2.23Zm-17.754,16.81-0.974-12.25,12.851-1.02,0.974,12.25Zm-1.746-41.03c10.74,3.26,25.646,5.92,31.065-8.66a2.979,2.979,0,0,0-5.584-2.08c-2.025,5.45-6.43,10.31-23.746,5.04-6.865-2.09-13.452.49-19.052,7.46a43.26,43.26,0,0,0-6.046,10.4,2.983,2.983,0,0,0,1.719,3.85,3.058,3.058,0,0,0,1.063.2,2.979,2.979,0,0,0,2.783-1.92C506.639,1887.02,513.451,1869.59,524.369,1872.91Zm30.036,29.34c0.082,0,.165-0.01.249-0.01l23.865-1.92a3.07,3.07,0,0,0-.492-6.12l-23.865,1.92A3.07,3.07,0,0,0,554.405,1902.25Zm31.34,11.34L555.761,1916a3.07,3.07,0,0,0,.243,6.13c0.082,0,.165-0.01.249-0.01l29.984-2.41A3.07,3.07,0,1,0,585.745,1913.59Zm-30.6-2.17a2.09,2.09,0,0,0,.249-0.01l29.985-2.41a3.065,3.065,0,1,0-.493-6.11L554.9,1905.3A3.065,3.065,0,0,0,555.143,1911.42Zm72.985,5.73H607.344a2.619,2.619,0,0,0-1.669.72l-5.251,5.5a2.3,2.3,0,0,0,0,3.34l5.251,5.5a2.435,2.435,0,0,0,.52.42h23.079a2.388,2.388,0,0,0,1.243-2.11v-10.98A2.256,2.256,0,0,0,628.128,1917.15Zm-2.377,11.01H608.3l-2.864-3.1,2.864-3.11h17.448v6.21Zm258.063,4.65v-48.9h0.1V1839a4.974,4.974,0,0,0,.089-0.93,3.851,3.851,0,0,0-4.074-4.07H708.067a3.851,3.851,0,0,0-4.074,4.07,4.974,4.974,0,0,0,.089.93v44.91h0.1v48.9c-7.1,2.2-10.186,15.57-10.186,20.04v4.08a4.087,4.087,0,0,0,4.074,4.07H889.925a4.087,4.087,0,0,0,4.075-4.07v-4.08C894,1948.38,890.912,1935.01,883.814,1932.81Zm-171.479-.32v-90.35H875.664v90.35m-173.516,20.36c0-3.41,2.461-9.99,4.12-11.87a4.372,4.372,0,0,0,1.992.46,4.236,4.236,0,0,0,2.557-.8H877.182a4.236,4.236,0,0,0,2.557.8,4.372,4.372,0,0,0,1.992-.46c1.659,1.88,4.12,8.46,4.12,11.87h-183.7Zm100.034-100.7a16.53,16.53,0,1,0,16.532,16.53A16.553,16.553,0,0,0,802.182,1852.15Zm0,26.48a9.95,9.95,0,1,1,9.955-9.95A9.962,9.962,0,0,1,802.182,1878.63Zm31.8-4a3.058,3.058,0,0,0,2.983,3.15l23.932,0.67h0.088a3.066,3.066,0,0,0,.084-6.13l-23.933-.67A3.051,3.051,0,0,0,833.981,1874.63Zm21.291,12.53h0.112a3.071,3.071,0,0,0,.108-6.14l-18.582-.66a3.067,3.067,0,1,0-.221,6.13Zm-18.641,2.29a3.066,3.066,0,1,0-.162,6.13l25.335,0.67h0.083a3.071,3.071,0,0,0,.079-6.14Zm-72.762,7.68a3.076,3.076,0,0,0-3.3-2.82l-18.971,1.51a3.044,3.044,0,0,0-2.093,1.06,3.088,3.088,0,0,0-.724,2.24l1.461,18.37a3.061,3.061,0,0,0,3.056,2.82,2.049,2.049,0,0,0,.247-0.01l18.971-1.5a3.091,3.091,0,0,0,2.092-1.07,3.059,3.059,0,0,0,.724-2.23Zm-17.754,16.81-0.974-12.25,12.851-1.02,0.974,12.25Zm-1.746-41.03c10.74,3.26,25.646,5.92,31.065-8.66a2.979,2.979,0,0,0-5.584-2.08c-2.025,5.45-6.43,10.31-23.746,5.04-6.865-2.09-13.452.49-19.052,7.46a43.26,43.26,0,0,0-6.046,10.4,2.983,2.983,0,0,0,1.719,3.85,3.058,3.058,0,0,0,1.063.2,2.979,2.979,0,0,0,2.783-1.92C726.639,1887.02,733.451,1869.59,744.369,1872.91Zm30.036,29.34c0.082,0,.165-0.01.249-0.01l23.865-1.92a3.07,3.07,0,0,0-.492-6.12l-23.865,1.92A3.07,3.07,0,0,0,774.405,1902.25Zm31.34,11.34L775.761,1916a3.07,3.07,0,0,0,.243,6.13c0.082,0,.165-0.01.249-0.01l29.984-2.41A3.07,3.07,0,1,0,805.745,1913.59Zm-30.6-2.17a2.09,2.09,0,0,0,.249-0.01l29.985-2.41a3.065,3.065,0,1,0-.493-6.11L774.9,1905.3A3.065,3.065,0,0,0,775.143,1911.42Zm72.985,5.73H827.344a2.619,2.619,0,0,0-1.669.72l-5.251,5.5a2.3,2.3,0,0,0,0,3.34l5.251,5.5a2.435,2.435,0,0,0,.52.42h23.079a2.388,2.388,0,0,0,1.243-2.11v-10.98A2.256,2.256,0,0,0,848.128,1917.15Zm-2.377,11.01H828.3l-2.864-3.1,2.864-3.11h17.448v6.21Z" transform="translate(-474 -1671)"/>
</svg>
