<svg xmlns="http://www.w3.org/2000/svg" xmlns:xlink="http://www.w3.org/1999/xlink" width="36" height="33" viewBox="0 0 36 33">
  <metadata><?xpacket begin="﻿" id="W5M0MpCehiHzreSzNTczkc9d"?>
<x:xmpmeta xmlns:x="adobe:ns:meta/" x:xmptk="Adobe XMP Core 5.6-c138 79.159824, 2016/09/14-01:09:01        ">
   <rdf:RDF xmlns:rdf="http://www.w3.org/1999/02/22-rdf-syntax-ns#">
      <rdf:Description rdf:about=""/>
   </rdf:RDF>
</x:xmpmeta>
                                                                                                    
                                                                                                    
                                                                                                    
                                                                                                    
                                                                                                    
                                                                                                    
                                                                                                    
                                                                                                    
                                                                                                    
                                                                                                    
                                                                                                    
                                                                                                    
                                                                                                    
                                                                                                    
                                                                                                    
                                                                                                    
                                                                                                    
                                                                                                    
                                                                                                    
                                                                                                    
                           
<?xpacket end="w"?></metadata>
<defs>
    <style>
      .cls-1 {
        fill: #fff;
        fill-rule: evenodd;
        filter: url(#filter);
      }
    </style>
    <filter id="filter" x="817" y="1396" width="36" height="33" filterUnits="userSpaceOnUse">
      <feOffset result="offset" dy="3" in="SourceAlpha"/>
      <feGaussianBlur result="blur"/>
      <feFlood result="flood" flood-opacity="0.15"/>
      <feComposite result="composite" operator="in" in2="blur"/>
      <feBlend result="blend" in="SourceGraphic"/>
    </filter>
  </defs>
  <path class="cls-1" d="M852.562,1411.92a1.57,1.57,0,0,0,.314-0.48s0-.01,0-0.01,0-.02.008-0.03a1.535,1.535,0,0,0,.1-0.53,0.016,0.016,0,0,0,0-.01c0-.01,0-0.01,0-0.02a1.563,1.563,0,0,0-.106-0.53,0.041,0.041,0,0,1-.007-0.02h0s0,0,0-.01a1.572,1.572,0,0,0-.335-0.49h0l-13.688-13.36a1.517,1.517,0,1,0-2.131,2.16l11.032,10.76H818.522a1.515,1.515,0,1,0,0,3.03H847.8l-11.092,11.03a1.508,1.508,0,0,0,0,2.14,1.534,1.534,0,0,0,2.151,0l13.687-13.61c0-.01,0-0.01.007-0.01h0C852.558,1411.92,852.559,1411.92,852.562,1411.92Z" transform="translate(-817 -1396)"/>
</svg>
