<svg xmlns="http://www.w3.org/2000/svg" xmlns:xlink="http://www.w3.org/1999/xlink" width="448" height="298" viewBox="0 0 448 298">
  <metadata><?xpacket begin="﻿" id="W5M0MpCehiHzreSzNTczkc9d"?>
<x:xmpmeta xmlns:x="adobe:ns:meta/" x:xmptk="Adobe XMP Core 5.6-c138 79.159824, 2016/09/14-01:09:01        ">
   <rdf:RDF xmlns:rdf="http://www.w3.org/1999/02/22-rdf-syntax-ns#">
      <rdf:Description rdf:about=""/>
   </rdf:RDF>
</x:xmpmeta>
                                                                                                    
                                                                                                    
                                                                                                    
                                                                                                    
                                                                                                    
                                                                                                    
                                                                                                    
                                                                                                    
                                                                                                    
                                                                                                    
                                                                                                    
                                                                                                    
                                                                                                    
                                                                                                    
                                                                                                    
                                                                                                    
                                                                                                    
                                                                                                    
                                                                                                    
                                                                                                    
                           
<?xpacket end="w"?></metadata>
<defs>
    <style>
      .cls-1 {
        fill: #fff;
        fill-rule: evenodd;
        filter: url(#filter);
      }
    </style>
    <filter id="filter" x="442" y="1028" width="448" height="298" filterUnits="userSpaceOnUse">
      <feOffset result="offset" dy="3" in="SourceAlpha"/>
      <feGaussianBlur result="blur"/>
      <feFlood result="flood" flood-opacity="0.15"/>
      <feComposite result="composite" operator="in" in2="blur"/>
      <feBlend result="blend" in="SourceGraphic"/>
    </filter>
  </defs>
  <path class="cls-1" d="M877.5,1247.63V1033a4.733,4.733,0,0,0-5-5H551.326a4.733,4.733,0,0,0-5,5,6.125,6.125,0,0,0,.109,1.14v153.41h10V1038.01H867.491v209.23H816.983a3.99,3.99,0,0,0,2.09-3.54v-18.49a3.8,3.8,0,0,0-4.018-4.02H780.11a4.405,4.405,0,0,0-2.807,1.21l-8.829,9.26a3.882,3.882,0,0,0,0,5.63l8.829,9.26a4.284,4.284,0,0,0,.875.69H637.725v10.01H869.354a5.164,5.164,0,0,0,3.139.99,5.444,5.444,0,0,0,2.445-.56c2.037,2.31,5.058,10.39,5.058,14.59H637.725v10.01H885a5.018,5.018,0,0,0,5-5.01v-5C890,1266.77,886.209,1250.34,877.5,1247.63Zm-66.436-7.91H781.723l-4.816-5.21,4.816-5.24h29.336v10.45ZM607.7,1198.65H494.932v-4.61a2.176,2.176,0,0,0-2.3-2.3H469.616a2.175,2.175,0,0,0-2.3,2.3v4.61h-6.9A18.462,18.462,0,0,0,442,1217.07v87.51A18.469,18.469,0,0,0,460.411,1323H607.7a18.468,18.468,0,0,0,18.411-18.42v-87.51A18.462,18.462,0,0,0,607.7,1198.65Zm9.2,105.93a9.242,9.242,0,0,1-9.2,9.21H478.974v-80.6h-9.51v80.6h-9.053a9.243,9.243,0,0,1-9.206-9.21v-87.51a9.243,9.243,0,0,1,9.206-9.21h9.053v6.91h9.51v-6.91H607.7a9.242,9.242,0,0,1,9.2,9.21v87.51ZM552.466,1236a24.825,24.825,0,1,0,24.808,24.82A24.888,24.888,0,0,0,552.466,1236Zm-89.754-7.42h23.014v-9.21H462.712v9.21Zm89.754-11.51a43.755,43.755,0,1,0,43.727,43.75A43.717,43.717,0,0,0,552.466,1217.07Zm0,78.3a34.545,34.545,0,1,1,34.521-34.55A34.483,34.483,0,0,1,552.466,1295.37Zm196.2-148.26-59.923,4.82a6.135,6.135,0,0,0,.485,12.25,4.189,4.189,0,0,0,.5-0.02l59.923-4.82A6.135,6.135,0,1,0,748.67,1147.11Zm80.226,37.98h0.225a6.137,6.137,0,0,0,.216-12.27l-37.136-1.34a6.139,6.139,0,0,0-.441,12.27Zm-37.078,15.85,50.633,1.33a0.909,0.909,0,0,0,.164.01,6.141,6.141,0,0,0,.159-12.28l-50.632-1.33A6.137,6.137,0,0,0,791.818,1200.94Zm48.163-46.54-47.83-1.34a6.142,6.142,0,0,0-.342,12.28l47.829,1.33a1.022,1.022,0,0,0,.174.01A6.141,6.141,0,0,0,839.981,1154.4Zm-149.513,18.94a6.14,6.14,0,0,0,.485,12.26c0.165,0,.331-0.01.5-0.02l59.923-4.82a6.14,6.14,0,0,0-.983-12.24Zm116.259-104.12a30.86,30.86,0,1,0,30.838,30.86A30.882,30.882,0,0,0,806.727,1069.22Zm0,49.44a18.58,18.58,0,1,1,18.569-18.58A18.6,18.6,0,0,1,806.727,1118.66Zm-71.761,11.08-47.694,3.83a6.14,6.14,0,0,0,.485,12.26c0.165,0,.331-0.01.5-0.02l47.694-3.84A6.135,6.135,0,0,0,734.966,1129.74Zm-64.8,51.06a6.151,6.151,0,0,0,1.448-4.47l-2.919-36.75a6.149,6.149,0,0,0-6.6-5.64l-37.913,3.02a6.126,6.126,0,0,0-5.629,6.6l2.918,36.75a6.139,6.139,0,0,0,6.109,5.66c0.163,0,.328-0.01.492-0.02l37.913-3.02A6.126,6.126,0,0,0,670.17,1180.8Zm-36.951-7.58-1.947-24.51,25.683-2.04,1.947,24.51Zm62.464-114.19a6.132,6.132,0,0,0-7.885,3.62c-4.17,11.23-13.24,21.24-48.9,10.38-14.135-4.3-27.7,1.01-39.233,15.38a88.9,88.9,0,0,0-12.45,21.45,6.135,6.135,0,0,0,3.539,7.92,6.031,6.031,0,0,0,2.19.41,6.133,6.133,0,0,0,5.731-3.95c0.139-.36,14.168-36.31,36.65-29.47,22.118,6.74,52.813,12.22,63.973-17.85A6.136,6.136,0,0,0,695.683,1059.03Z" transform="translate(-442 -1028)"/>
</svg>
